<svg width="36" height="43" viewBox="0 0 36 43" fill="none" xmlns="http://www.w3.org/2000/svg">
<path fill-rule="evenodd" clip-rule="evenodd" d="M18 6.16235L24 10.9624H23C23.5523 10.9624 24 11.4101 24 11.9624V18.3624C24 18.9146 23.5523 19.3624 23 19.3624H13C12.4477 19.3624 12 18.9146 12 18.3624V11.9624C12 11.4101 12.4477 10.9624 13 10.9624H12L18 6.16235ZM19.8 15.7624V12.1624H16.2V15.7624L19.8 15.7624Z" fill="#08B783"/>
<path d="M26.25 12.7624L25.35 12.0424L18 6.16235L10.65 12.0424L9.75 12.7624" stroke="#08B783" stroke-width="3" stroke-linecap="round" stroke-linejoin="round"/>
<path fill-rule="evenodd" clip-rule="evenodd" d="M22.8751 10.0624H24.6001V6.4624L18.6001 6.4624V6.6424L22.8751 10.0624Z" fill="#08B783"/>
<path d="M24.6001 10.0624V11.0624C25.1524 11.0624 25.6001 10.6147 25.6001 10.0624L24.6001 10.0624ZM22.8751 10.0624L22.2504 10.8433C22.4277 10.9851 22.648 11.0624 22.8751 11.0624V10.0624ZM24.6001 6.4624H25.6001C25.6001 5.91012 25.1524 5.4624 24.6001 5.4624V6.4624ZM18.6001 6.4624V5.4624C18.0478 5.4624 17.6001 5.91012 17.6001 6.4624H18.6001ZM18.6001 6.6424H17.6001C17.6001 6.94619 17.7382 7.2335 17.9754 7.42327L18.6001 6.6424ZM24.6001 9.0624H22.8751V11.0624H24.6001V9.0624ZM23.6001 6.4624V10.0624L25.6001 10.0624V6.4624H23.6001ZM18.6001 7.4624L24.6001 7.4624V5.4624L18.6001 5.4624V7.4624ZM19.6001 6.6424V6.4624H17.6001V6.6424H19.6001ZM17.9754 7.42327L22.2504 10.8433L23.4998 9.28153L19.2248 5.86153L17.9754 7.42327Z" fill="#08B783"/>
<path d="M7.56 29.4225V37.7625H6.192V34.1145H2.268V37.7625H0.9V29.4225H2.268V32.9985H6.192V29.4225H7.56ZM12.2289 37.8705C11.6049 37.8705 11.0409 37.7305 10.5369 37.4505C10.0329 37.1625 9.63694 36.7625 9.34894 36.2505C9.06094 35.7305 8.91694 35.1305 8.91694 34.4505C8.91694 33.7785 9.06494 33.1825 9.36094 32.6625C9.65694 32.1425 10.0609 31.7425 10.5729 31.4625C11.0849 31.1825 11.6569 31.0425 12.2889 31.0425C12.9209 31.0425 13.4929 31.1825 14.0049 31.4625C14.5169 31.7425 14.9209 32.1425 15.2169 32.6625C15.5129 33.1825 15.6609 33.7785 15.6609 34.4505C15.6609 35.1225 15.5089 35.7185 15.2049 36.2385C14.9009 36.7585 14.4849 37.1625 13.9569 37.4505C13.4369 37.7305 12.8609 37.8705 12.2289 37.8705ZM12.2289 36.6825C12.5809 36.6825 12.9089 36.5985 13.2129 36.4305C13.5249 36.2625 13.7769 36.0105 13.9689 35.6745C14.1609 35.3385 14.2569 34.9305 14.2569 34.4505C14.2569 33.9705 14.1649 33.5665 13.9809 33.2385C13.7969 32.9025 13.5529 32.6505 13.2489 32.4825C12.9449 32.3145 12.6169 32.2305 12.2649 32.2305C11.9129 32.2305 11.5849 32.3145 11.2809 32.4825C10.9849 32.6505 10.7489 32.9025 10.5729 33.2385C10.3969 33.5665 10.3089 33.9705 10.3089 34.4505C10.3089 35.1625 10.4889 35.7145 10.8489 36.1065C11.2169 36.4905 11.6769 36.6825 12.2289 36.6825ZM25.0173 31.0425C25.5373 31.0425 26.0013 31.1505 26.4093 31.3665C26.8253 31.5825 27.1493 31.9025 27.3813 32.3265C27.6213 32.7505 27.7413 33.2625 27.7413 33.8625V37.7625H26.3853V34.0665C26.3853 33.4745 26.2373 33.0225 25.9413 32.7105C25.6453 32.3905 25.2413 32.2305 24.7293 32.2305C24.2173 32.2305 23.8093 32.3905 23.5053 32.7105C23.2093 33.0225 23.0613 33.4745 23.0613 34.0665V37.7625H21.7053V34.0665C21.7053 33.4745 21.5573 33.0225 21.2613 32.7105C20.9653 32.3905 20.5613 32.2305 20.0493 32.2305C19.5373 32.2305 19.1293 32.3905 18.8253 32.7105C18.5293 33.0225 18.3813 33.4745 18.3813 34.0665V37.7625H17.0133V31.1505H18.3813V31.9065C18.6053 31.6345 18.8893 31.4225 19.2333 31.2705C19.5773 31.1185 19.9453 31.0425 20.3373 31.0425C20.8653 31.0425 21.3373 31.1545 21.7533 31.3785C22.1693 31.6025 22.4893 31.9265 22.7133 32.3505C22.9133 31.9505 23.2253 31.6345 23.6493 31.4025C24.0733 31.1625 24.5293 31.0425 25.0173 31.0425ZM35.542 34.2945C35.542 34.5425 35.526 34.7665 35.494 34.9665H30.442C30.482 35.4945 30.678 35.9185 31.03 36.2385C31.382 36.5585 31.814 36.7185 32.326 36.7185C33.062 36.7185 33.582 36.4105 33.886 35.7945H35.362C35.162 36.4025 34.798 36.9025 34.27 37.2945C33.75 37.6785 33.102 37.8705 32.326 37.8705C31.694 37.8705 31.126 37.7305 30.622 37.4505C30.126 37.1625 29.734 36.7625 29.446 36.2505C29.166 35.7305 29.026 35.1305 29.026 34.4505C29.026 33.7705 29.162 33.1745 29.434 32.6625C29.714 32.1425 30.102 31.7425 30.598 31.4625C31.102 31.1825 31.678 31.0425 32.326 31.0425C32.95 31.0425 33.506 31.1785 33.994 31.4505C34.482 31.7225 34.862 32.1065 35.134 32.6025C35.406 33.0905 35.542 33.6545 35.542 34.2945ZM34.114 33.8625C34.106 33.3585 33.926 32.9545 33.574 32.6505C33.222 32.3465 32.786 32.1945 32.266 32.1945C31.794 32.1945 31.39 32.3465 31.054 32.6505C30.718 32.9465 30.518 33.3505 30.454 33.8625H34.114Z" fill="#08B783"/>
</svg>
