<svg width="38" height="43" viewBox="0 0 38 43" fill="none" xmlns="http://www.w3.org/2000/svg">
<path d="M25 21.7624H13.0001C12.3373 21.7624 11.8 21.2252 11.8 20.5624C11.8 18.5775 13.0315 16.8009 14.8901 16.1043L15.2592 15.966C17.6712 15.062 20.3289 15.062 22.7409 15.966L23.11 16.1043C24.9686 16.8009 26.2 18.5775 26.2 20.5624C26.2 21.2252 25.6628 21.7624 25 21.7624Z" fill="#C2CCDE" fill-opacity="0.25"/>
<path d="M17.1705 12.4226C18.3189 13.0125 19.6812 13.0125 20.8296 12.4226C21.8984 11.8736 22.6641 10.8737 22.9155 9.69878L22.9826 9.3852C23.2397 8.18371 22.9651 6.92973 22.2294 5.94565L22.1216 5.80155C21.3858 4.81734 20.2289 4.23779 19 4.23779C17.7712 4.23779 16.6143 4.81734 15.8785 5.80155L15.7707 5.94565C15.035 6.92973 14.7604 8.18371 15.0175 9.3852L15.0846 9.69878C15.336 10.8737 16.1017 11.8736 17.1705 12.4226Z" fill="#C2CCDE" fill-opacity="0.25"/>
<path d="M25 21.7624H13.0001C12.3373 21.7624 11.8 21.2252 11.8 20.5624C11.8 18.5775 13.0315 16.8009 14.8901 16.1043L15.2592 15.966C17.6712 15.062 20.3289 15.062 22.7409 15.966L23.11 16.1043C24.9686 16.8009 26.2 18.5775 26.2 20.5624C26.2 21.2252 25.6628 21.7624 25 21.7624Z" stroke="#414141" stroke-linecap="round" stroke-linejoin="round"/>
<path d="M17.1705 12.4226C18.3189 13.0125 19.6812 13.0125 20.8296 12.4226C21.8984 11.8736 22.6641 10.8737 22.9155 9.69878L22.9826 9.3852C23.2397 8.18371 22.9651 6.92973 22.2294 5.94565L22.1216 5.80155C21.3858 4.81734 20.2289 4.23779 19 4.23779C17.7712 4.23779 16.6143 4.81734 15.8785 5.80155L15.7707 5.94565C15.035 6.92973 14.7604 8.18371 15.0175 9.3852L15.0846 9.69878C15.336 10.8737 16.1017 11.8736 17.1705 12.4226Z" stroke="#414141" stroke-linecap="round" stroke-linejoin="round"/>
<path d="M6.732 31.9065C6.732 32.3305 6.632 32.7305 6.432 33.1065C6.232 33.4825 5.912 33.7905 5.472 34.0305C5.032 34.2625 4.468 34.3785 3.78 34.3785H2.268V37.7625H0.9V29.4225H3.78C4.42 29.4225 4.96 29.5345 5.4 29.7585C5.848 29.9745 6.18 30.2705 6.396 30.6465C6.62 31.0225 6.732 31.4425 6.732 31.9065ZM3.78 33.2625C4.3 33.2625 4.688 33.1465 4.944 32.9145C5.2 32.6745 5.328 32.3385 5.328 31.9065C5.328 30.9945 4.812 30.5385 3.78 30.5385H2.268V33.2625H3.78ZM9.40472 32.1105C9.60472 31.7745 9.86872 31.5145 10.1967 31.3305C10.5327 31.1385 10.9287 31.0425 11.3847 31.0425V32.4585H11.0367C10.5007 32.4585 10.0927 32.5945 9.81272 32.8665C9.54072 33.1385 9.40472 33.6105 9.40472 34.2825V37.7625H8.03672V31.1505H9.40472V32.1105ZM15.5102 37.8705C14.8862 37.8705 14.3222 37.7305 13.8182 37.4505C13.3142 37.1625 12.9182 36.7625 12.6302 36.2505C12.3422 35.7305 12.1982 35.1305 12.1982 34.4505C12.1982 33.7785 12.3462 33.1825 12.6422 32.6625C12.9382 32.1425 13.3422 31.7425 13.8542 31.4625C14.3662 31.1825 14.9382 31.0425 15.5702 31.0425C16.2022 31.0425 16.7742 31.1825 17.2862 31.4625C17.7982 31.7425 18.2022 32.1425 18.4982 32.6625C18.7942 33.1825 18.9422 33.7785 18.9422 34.4505C18.9422 35.1225 18.7902 35.7185 18.4862 36.2385C18.1822 36.7585 17.7662 37.1625 17.2382 37.4505C16.7182 37.7305 16.1422 37.8705 15.5102 37.8705ZM15.5102 36.6825C15.8622 36.6825 16.1902 36.5985 16.4942 36.4305C16.8062 36.2625 17.0582 36.0105 17.2502 35.6745C17.4422 35.3385 17.5382 34.9305 17.5382 34.4505C17.5382 33.9705 17.4462 33.5665 17.2622 33.2385C17.0782 32.9025 16.8342 32.6505 16.5302 32.4825C16.2262 32.3145 15.8982 32.2305 15.5462 32.2305C15.1942 32.2305 14.8662 32.3145 14.5622 32.4825C14.2662 32.6505 14.0302 32.9025 13.8542 33.2385C13.6782 33.5665 13.5902 33.9705 13.5902 34.4505C13.5902 35.1625 13.7702 35.7145 14.1302 36.1065C14.4982 36.4905 14.9582 36.6825 15.5102 36.6825ZM23.0665 32.2665H21.8425V37.7625H20.4625V32.2665H19.6825V31.1505H20.4625V30.6825C20.4625 29.9225 20.6625 29.3705 21.0625 29.0265C21.4705 28.6745 22.1065 28.4985 22.9705 28.4985V29.6385C22.5545 29.6385 22.2625 29.7185 22.0945 29.8785C21.9265 30.0305 21.8425 30.2985 21.8425 30.6825V31.1505H23.0665V32.2665ZM24.9749 30.2745C24.7269 30.2745 24.5189 30.1905 24.3509 30.0225C24.1829 29.8545 24.0989 29.6465 24.0989 29.3985C24.0989 29.1505 24.1829 28.9425 24.3509 28.7745C24.5189 28.6065 24.7269 28.5225 24.9749 28.5225C25.2149 28.5225 25.4189 28.6065 25.5869 28.7745C25.7549 28.9425 25.8389 29.1505 25.8389 29.3985C25.8389 29.6465 25.7549 29.8545 25.5869 30.0225C25.4189 30.1905 25.2149 30.2745 24.9749 30.2745ZM25.6469 31.1505V37.7625H24.2789V31.1505H25.6469ZM28.811 28.8825V37.7625H27.443V28.8825H28.811ZM36.667 34.2945C36.667 34.5425 36.651 34.7665 36.619 34.9665H31.567C31.607 35.4945 31.803 35.9185 32.155 36.2385C32.507 36.5585 32.939 36.7185 33.451 36.7185C34.187 36.7185 34.707 36.4105 35.011 35.7945H36.487C36.287 36.4025 35.923 36.9025 35.395 37.2945C34.875 37.6785 34.227 37.8705 33.451 37.8705C32.819 37.8705 32.251 37.7305 31.747 37.4505C31.251 37.1625 30.859 36.7625 30.571 36.2505C30.291 35.7305 30.151 35.1305 30.151 34.4505C30.151 33.7705 30.287 33.1745 30.559 32.6625C30.839 32.1425 31.227 31.7425 31.723 31.4625C32.227 31.1825 32.803 31.0425 33.451 31.0425C34.075 31.0425 34.631 31.1785 35.119 31.4505C35.607 31.7225 35.987 32.1065 36.259 32.6025C36.531 33.0905 36.667 33.6545 36.667 34.2945ZM35.239 33.8625C35.231 33.3585 35.051 32.9545 34.699 32.6505C34.347 32.3465 33.911 32.1945 33.391 32.1945C32.919 32.1945 32.515 32.3465 32.179 32.6505C31.843 32.9465 31.643 33.3505 31.579 33.8625H35.239Z" fill="#414141"/>
</svg>
